<mxfile host="app.diagrams.net" modified="2021-04-19T23:10:43.610Z" agent="5.0 (Macintosh; Intel Mac OS X 10_15_7) AppleWebKit/537.36 (KHTML, like Gecko) Chrome/89.0.4389.90 Safari/537.36 Edg/89.0.774.63" etag="T44lpF-tPuiDMK32o82y" version="14.5.3" type="github">
  <diagram id="PwaxqTMq_kMb_50ATZwz" name="Page-1">
    <mxGraphModel dx="2404" dy="860" grid="1" gridSize="10" guides="1" tooltips="1" connect="1" arrows="1" fold="1" page="1" pageScale="1" pageWidth="850" pageHeight="1100" math="0" shadow="0">
      <root>
        <mxCell id="0" />
        <mxCell id="1" parent="0" />
        <mxCell id="gohMGVJs7tJ-NbfsoPPv-8" value="MS SSO - AD" style="rounded=1;whiteSpace=wrap;html=1;verticalAlign=top;fillColor=#dae8fc;strokeColor=#6c8ebf;" vertex="1" parent="1">
          <mxGeometry x="630" y="385" width="560" height="35" as="geometry" />
        </mxCell>
        <mxCell id="gohMGVJs7tJ-NbfsoPPv-1" value="MS SSO - AD" style="rounded=1;whiteSpace=wrap;html=1;verticalAlign=top;fillColor=#d5e8d4;strokeColor=#82b366;" vertex="1" parent="1">
          <mxGeometry x="10" y="380" width="560" height="40" as="geometry" />
        </mxCell>
        <mxCell id="gohMGVJs7tJ-NbfsoPPv-3" value="Gig API" style="rounded=1;whiteSpace=wrap;html=1;fillColor=#e1d5e7;strokeColor=#9673a6;" vertex="1" parent="1">
          <mxGeometry x="-190" y="520" width="120" height="60" as="geometry" />
        </mxCell>
        <mxCell id="gohMGVJs7tJ-NbfsoPPv-4" value="Disputes API" style="rounded=1;whiteSpace=wrap;html=1;fillColor=#dae8fc;strokeColor=#6c8ebf;" vertex="1" parent="1">
          <mxGeometry x="850" y="520" width="120" height="60" as="geometry" />
        </mxCell>
        <mxCell id="gohMGVJs7tJ-NbfsoPPv-6" value="&lt;pre style=&quot;background-color: #2b2b2b ; color: #a9b7c6 ; font-family: &amp;#34;jetbrains mono&amp;#34; , monospace ; font-size: 9.8pt&quot;&gt;https://insefsoom5wap01.azurewebsites.net&lt;/pre&gt;" style="rounded=1;whiteSpace=wrap;html=1;fillColor=#f8cecc;strokeColor=#b85450;" vertex="1" parent="1">
          <mxGeometry x="55" y="440" width="490" height="60" as="geometry" />
        </mxCell>
        <mxCell id="gohMGVJs7tJ-NbfsoPPv-7" value="Dispute" style="rounded=1;whiteSpace=wrap;html=1;fillColor=#dae8fc;strokeColor=#6c8ebf;" vertex="1" parent="1">
          <mxGeometry x="850" y="430" width="120" height="60" as="geometry" />
        </mxCell>
        <mxCell id="gohMGVJs7tJ-NbfsoPPv-9" value="" style="endArrow=classic;html=1;exitX=0.5;exitY=1;exitDx=0;exitDy=0;entryX=0;entryY=0.5;entryDx=0;entryDy=0;" edge="1" parent="1" source="gohMGVJs7tJ-NbfsoPPv-6" target="gohMGVJs7tJ-NbfsoPPv-4">
          <mxGeometry width="50" height="50" relative="1" as="geometry">
            <mxPoint x="420" y="460" as="sourcePoint" />
            <mxPoint x="470" y="410" as="targetPoint" />
          </mxGeometry>
        </mxCell>
        <mxCell id="gohMGVJs7tJ-NbfsoPPv-10" value="" style="endArrow=classic;html=1;entryX=1;entryY=0.5;entryDx=0;entryDy=0;exitX=0.5;exitY=1;exitDx=0;exitDy=0;" edge="1" parent="1" source="gohMGVJs7tJ-NbfsoPPv-6" target="gohMGVJs7tJ-NbfsoPPv-15">
          <mxGeometry width="50" height="50" relative="1" as="geometry">
            <mxPoint x="290" y="530" as="sourcePoint" />
            <mxPoint x="470" y="410" as="targetPoint" />
          </mxGeometry>
        </mxCell>
        <mxCell id="gohMGVJs7tJ-NbfsoPPv-11" value="aud confg&lt;br&gt;" style="text;html=1;strokeColor=none;fillColor=none;align=center;verticalAlign=middle;whiteSpace=wrap;rounded=0;" vertex="1" parent="1">
          <mxGeometry x="610" y="520" width="40" height="80" as="geometry" />
        </mxCell>
        <mxCell id="gohMGVJs7tJ-NbfsoPPv-12" value="Demo" style="text;html=1;strokeColor=none;fillColor=none;align=center;verticalAlign=middle;whiteSpace=wrap;rounded=0;" vertex="1" parent="1">
          <mxGeometry x="260" y="320" width="40" height="20" as="geometry" />
        </mxCell>
        <mxCell id="gohMGVJs7tJ-NbfsoPPv-13" value="Gig UI" style="rounded=1;whiteSpace=wrap;html=1;fillColor=#e1d5e7;strokeColor=#9673a6;" vertex="1" parent="1">
          <mxGeometry x="-190" y="410" width="120" height="60" as="geometry" />
        </mxCell>
        <mxCell id="gohMGVJs7tJ-NbfsoPPv-14" value="Disputes API" style="rounded=1;whiteSpace=wrap;html=1;fillColor=#dae8fc;strokeColor=#6c8ebf;" vertex="1" parent="1">
          <mxGeometry x="860" y="530" width="120" height="60" as="geometry" />
        </mxCell>
        <mxCell id="gohMGVJs7tJ-NbfsoPPv-15" value="Gig API" style="rounded=1;whiteSpace=wrap;html=1;fillColor=#e1d5e7;strokeColor=#9673a6;" vertex="1" parent="1">
          <mxGeometry x="-180" y="530" width="120" height="60" as="geometry" />
        </mxCell>
        <mxCell id="gohMGVJs7tJ-NbfsoPPv-16" value="congintio" style="text;html=1;strokeColor=none;fillColor=none;align=center;verticalAlign=middle;whiteSpace=wrap;rounded=0;" vertex="1" parent="1">
          <mxGeometry x="50" y="550" width="40" height="20" as="geometry" />
        </mxCell>
        <mxCell id="gohMGVJs7tJ-NbfsoPPv-17" value="APIM" style="text;html=1;strokeColor=none;fillColor=none;align=center;verticalAlign=middle;whiteSpace=wrap;rounded=0;" vertex="1" parent="1">
          <mxGeometry x="-10" y="520" width="40" height="20" as="geometry" />
        </mxCell>
      </root>
    </mxGraphModel>
  </diagram>
</mxfile>
